<svg width="136" height="44" viewBox="0 0 136 44" fill="none" xmlns="http://www.w3.org/2000/svg">
<g clip-path="url(#clip0_174_225)">
<path d="M21.8673 43.9334L19.0179 41.0754L24.1865 35.8912L21.8673 33.6313L16.7649 38.7492L7.02403 28.9788L21.8673 14.0241L33.9937 26.1873L38.1683 22L21.9335 5.716L2.84937 24.858L0 22L21.9335 0L43.8671 22L33.9937 31.9033L21.8673 19.7401L12.7228 28.9788L16.7649 33.0332L21.8673 27.9153L29.8853 35.9576L21.8673 43.9334Z" fill="#E7AC28"/>
</g>
<path d="M66.0599 28.6663H63.4499L62.6939 26.3983H58.1399L57.3659 28.6663H54.7559L59.4179 15.8503H61.3799L66.0599 28.6663ZM62.0279 24.2923L60.4619 19.6303L58.8419 24.2923H62.0279Z" fill="#E7AC28"/>
<path d="M74.2804 27.4963C73.4644 28.3483 72.4324 28.7743 71.1844 28.7743C70.7884 28.7743 70.4044 28.7323 70.0324 28.6483C69.6604 28.5523 69.2824 28.3963 68.8984 28.1803C68.5264 27.9523 68.2024 27.6643 67.9264 27.3163C67.6504 26.9563 67.4224 26.4943 67.2424 25.9303C67.0744 25.3543 66.9904 24.7003 66.9904 23.9683C66.9904 23.2363 67.0744 22.5883 67.2424 22.0243C67.4224 21.4483 67.6504 20.9863 67.9264 20.6383C68.2024 20.2903 68.5264 20.0023 68.8984 19.7743C69.2824 19.5463 69.6604 19.3903 70.0324 19.3063C70.4044 19.2223 70.7884 19.1803 71.1844 19.1803C72.4444 19.1803 73.4764 19.6003 74.2804 20.4403L72.6964 22.0243C72.2404 21.5323 71.7364 21.2863 71.1844 21.2863C70.6324 21.2863 70.1884 21.4903 69.8524 21.8983C69.5044 22.3303 69.3304 23.0203 69.3304 23.9683C69.3304 24.9283 69.5044 25.6243 69.8524 26.0563C70.1884 26.4643 70.6324 26.6683 71.1844 26.6683C71.7364 26.6683 72.2404 26.4223 72.6964 25.9303L74.2804 27.4963Z" fill="#E7AC28"/>
<path d="M82.6651 27.4963C81.8491 28.3483 80.8171 28.7743 79.5691 28.7743C79.1731 28.7743 78.7891 28.7323 78.4171 28.6483C78.0451 28.5523 77.6671 28.3963 77.2831 28.1803C76.9111 27.9523 76.5871 27.6643 76.3111 27.3163C76.0351 26.9563 75.8071 26.4943 75.6271 25.9303C75.4591 25.3543 75.3751 24.7003 75.3751 23.9683C75.3751 23.2363 75.4591 22.5883 75.6271 22.0243C75.8071 21.4483 76.0351 20.9863 76.3111 20.6383C76.5871 20.2903 76.9111 20.0023 77.2831 19.7743C77.6671 19.5463 78.0451 19.3903 78.4171 19.3063C78.7891 19.2223 79.1731 19.1803 79.5691 19.1803C80.8291 19.1803 81.8611 19.6003 82.6651 20.4403L81.0811 22.0243C80.6251 21.5323 80.1211 21.2863 79.5691 21.2863C79.0171 21.2863 78.5731 21.4903 78.2371 21.8983C77.8891 22.3303 77.7151 23.0203 77.7151 23.9683C77.7151 24.9283 77.8891 25.6243 78.2371 26.0563C78.5731 26.4643 79.0171 26.6683 79.5691 26.6683C80.1211 26.6683 80.6251 26.4223 81.0811 25.9303L82.6651 27.4963Z" fill="#E7AC28"/>
<path d="M91.7699 23.9683C91.7699 24.8683 91.6919 25.6003 91.5359 26.1643C91.3919 26.7163 91.1159 27.2023 90.7079 27.6223C89.9639 28.3903 88.9919 28.7743 87.7919 28.7743C86.6039 28.7743 85.6379 28.3903 84.8939 27.6223C84.4859 27.1903 84.2039 26.6983 84.0479 26.1463C83.9039 25.5823 83.8319 24.8563 83.8319 23.9683C83.8319 23.0803 83.9039 22.3603 84.0479 21.8083C84.2039 21.2563 84.4859 20.7643 84.8939 20.3323C85.6379 19.5643 86.6039 19.1803 87.7919 19.1803C89.0159 19.1803 89.9879 19.5643 90.7079 20.3323C91.1159 20.7643 91.3919 21.2563 91.5359 21.8083C91.6919 22.3603 91.7699 23.0803 91.7699 23.9683ZM89.4299 23.9683C89.4299 22.8043 89.2499 22.0483 88.8899 21.7003C88.6139 21.4243 88.2479 21.2863 87.7919 21.2863C87.3479 21.2863 86.9879 21.4243 86.7119 21.7003C86.3519 22.0483 86.1719 22.8043 86.1719 23.9683C86.1719 25.1443 86.3519 25.9063 86.7119 26.2543C86.9879 26.5303 87.3479 26.6683 87.7919 26.6683C88.2479 26.6683 88.6139 26.5303 88.8899 26.2543C89.2499 25.9063 89.4299 25.1443 89.4299 23.9683Z" fill="#E7AC28"/>
<path d="M101.687 28.6663H99.4013V27.8023C98.7893 28.4503 98.0093 28.7743 97.0614 28.7743C96.1374 28.7743 95.3993 28.4983 94.8474 27.9463C94.2113 27.3103 93.8934 26.4223 93.8934 25.2823V19.2883H96.2333V24.9583C96.2333 25.5463 96.3834 25.9783 96.6833 26.2543C96.9953 26.5303 97.3613 26.6683 97.7813 26.6683C98.2133 26.6683 98.5793 26.5303 98.8793 26.2543C99.1913 25.9783 99.3473 25.5463 99.3473 24.9583V19.2883H101.687V28.6663Z" fill="#E7AC28"/>
<path d="M112.114 28.6663H109.774V22.9963C109.774 22.4083 109.618 21.9763 109.306 21.7003C109.006 21.4243 108.646 21.2863 108.226 21.2863C107.794 21.2863 107.422 21.4243 107.11 21.7003C106.81 21.9763 106.66 22.4083 106.66 22.9963V28.6663H104.32V19.2883H106.606V20.1523C107.218 19.5043 107.998 19.1803 108.946 19.1803C109.87 19.1803 110.608 19.4563 111.16 20.0083C111.796 20.6443 112.114 21.5323 112.114 22.6723V28.6663Z" fill="#E7AC28"/>
<path d="M118.85 28.6663H117.572C116.684 28.6663 116.006 28.4023 115.538 27.8743C115.082 27.3463 114.854 26.7163 114.854 25.9843V21.3403H113.864V19.5583H114.854V16.7863H117.194V19.5583H118.85V21.3403H117.194V25.8403C117.194 26.4043 117.464 26.6863 118.004 26.6863H118.85V28.6663Z" fill="#E7AC28"/>
<path d="M123.306 28.6663H120.966V19.5583H123.306V28.6663ZM123.324 17.6863H120.93V15.7783H123.324V17.6863Z" fill="#E7AC28"/>
<path d="M133.015 28.6663H130.729V27.8563C130.405 28.1803 130.069 28.4143 129.721 28.5583C129.385 28.6903 128.953 28.7563 128.425 28.7563C127.381 28.7563 126.583 28.4803 126.031 27.9283C125.515 27.3883 125.257 26.6863 125.257 25.8223C125.257 25.0303 125.533 24.3823 126.085 23.8783C126.637 23.3623 127.441 23.1043 128.497 23.1043H130.675V22.6363C130.675 22.1203 130.537 21.7483 130.261 21.5203C129.985 21.2803 129.541 21.1603 128.929 21.1603C128.197 21.1603 127.597 21.4303 127.129 21.9703L125.653 20.5123C126.109 20.0083 126.583 19.6603 127.075 19.4683C127.579 19.2763 128.227 19.1803 129.019 19.1803C131.683 19.1803 133.015 20.2843 133.015 22.4923V28.6663ZM130.675 25.2103V24.7063H128.893C127.969 24.7063 127.507 25.0663 127.507 25.7863C127.507 26.4943 127.981 26.8483 128.929 26.8483C129.541 26.8483 130.003 26.6983 130.315 26.3983C130.555 26.1943 130.675 25.7983 130.675 25.2103Z" fill="#E7AC28"/>
<defs>
<clipPath id="clip0_174_225">
<rect width="44" height="44" fill="white"/>
</clipPath>
</defs>
</svg>
