<svg width="40" height="40" viewBox="0 0 40 40" fill="none" xmlns="http://www.w3.org/2000/svg">
<rect width="40" height="40" rx="4" fill="#E7AC28"/>
<path d="M22.6875 16.4297C21.776 16.4297 21.0703 16.7734 20.5703 17.4609C20.0703 18.1432 19.8203 19.0964 19.8203 20.3203C19.8203 22.8672 20.776 24.1406 22.6875 24.1406C23.4896 24.1406 24.4609 23.9401 25.6016 23.5391V25.5703C24.6641 25.9609 23.6172 26.1562 22.4609 26.1562C20.7995 26.1562 19.5286 25.6536 18.6484 24.6484C17.7682 23.638 17.3281 22.1901 17.3281 20.3047C17.3281 19.1172 17.5443 18.0781 17.9766 17.1875C18.4089 16.2917 19.0286 15.6068 19.8359 15.1328C20.6484 14.6536 21.599 14.4141 22.6875 14.4141C23.7969 14.4141 24.9115 14.6823 26.0312 15.2188L25.25 17.1875C24.8229 16.9844 24.3932 16.8073 23.9609 16.6562C23.5286 16.5052 23.1042 16.4297 22.6875 16.4297Z" fill="#F5F5F5"/>
</svg>
