<svg width="80" height="80" viewBox="0 0 24 24" fill="none" xmlns="http://www.w3.org/2000/svg">
<path fill-rule="evenodd" clip-rule="evenodd" d="M11.6823 2C11.671 2 11.6598 2 11.6484 2L5.31771 2C4.92008 1.99998 4.56818 1.99997 4.27654 2.02366C3.96598 2.0489 3.64417 2.10548 3.3309 2.26423C2.87225 2.49665 2.49936 2.86751 2.26567 3.32366C2.10605 3.63523 2.04917 3.95528 2.02379 4.26416C1.99997 4.55421 1.99998 4.9042 2 5.29966V18.7003C1.99998 19.0958 1.99997 19.4458 2.02379 19.7358C2.04917 20.0447 2.10605 20.3648 2.26567 20.6763C2.49936 21.1325 2.87225 21.5034 3.3309 21.7358C3.64417 21.8945 3.96598 21.9511 4.27654 21.9763C4.56818 22 4.92008 22 5.3177 22H11.6823C12.0799 22 12.4318 22 12.7235 21.9763C13.034 21.9511 13.3558 21.8945 13.6691 21.7358C14.1277 21.5034 14.5006 21.1325 14.7343 20.6763C14.8939 20.3648 14.9508 20.0447 14.9762 19.7358C15 19.4458 15 19.0958 15 18.7003L15 16.5455C15 16.0434 14.5908 15.6364 14.0859 15.6364C13.5811 15.6364 13.1719 16.0434 13.1719 16.5455V18.6667C13.1719 19.1059 13.1712 19.3807 13.1542 19.5878C13.138 19.7842 13.1119 19.8384 13.1055 19.8509C13.047 19.9649 12.9538 20.0577 12.8391 20.1158C12.8265 20.1221 12.7721 20.1481 12.5746 20.1642C12.3664 20.1811 12.0901 20.1818 11.6484 20.1818H5.35156C4.90988 20.1818 4.63359 20.1811 4.42541 20.1642C4.2279 20.1481 4.17346 20.1221 4.16085 20.1158C4.04619 20.0577 3.95297 19.9649 3.89454 19.8509C3.88812 19.8384 3.86198 19.7842 3.84585 19.5878C3.82884 19.3807 3.82813 19.1059 3.82813 18.6667V5.33333C3.82813 4.89405 3.82884 4.61926 3.84585 4.41222C3.86198 4.21578 3.88812 4.16164 3.89454 4.1491C3.95297 4.03506 4.04619 3.94235 4.16085 3.88424C4.17346 3.87785 4.2279 3.85186 4.42541 3.83581C4.63359 3.81889 4.90988 3.81818 5.35156 3.81818H11.6484C12.0901 3.81818 12.3664 3.81889 12.5746 3.83581C12.7721 3.85186 12.8265 3.87785 12.8391 3.88424C12.9538 3.94235 13.047 4.03506 13.1055 4.1491C13.1119 4.16164 13.138 4.21578 13.1542 4.41222C13.1712 4.61926 13.1719 4.89405 13.1719 5.33333V7.45455C13.1719 7.95662 13.5811 8.36364 14.0859 8.36364C14.5908 8.36364 15 7.95662 15 7.45455V5.33333C15 5.32208 15 5.31085 15 5.29966C15 4.9042 15 4.55421 14.9762 4.26416C14.9508 3.95528 14.8939 3.63523 14.7343 3.32366C14.5006 2.86751 14.1277 2.49665 13.6691 2.26423C13.3558 2.10548 13.034 2.0489 12.7235 2.02366C12.4318 1.99997 12.0799 1.99998 11.6823 2Z" fill="#E7AC28"/>
<path fill-rule="evenodd" clip-rule="evenodd" d="M17.2644 6.9638C16.9129 7.31527 16.9129 7.88512 17.2644 8.23659L20.228 11.2002H8.90078C8.40373 11.2002 8.00078 11.6031 8.00078 12.1002C8.00078 12.5973 8.40373 13.0002 8.90078 13.0002H20.228L17.2644 15.9638C16.9129 16.3153 16.9129 16.8851 17.2644 17.2366C17.6159 17.5881 18.1857 17.5881 18.5372 17.2366L23.0372 12.7366C23.3886 12.3851 23.3886 11.8153 23.0372 11.4638L18.5372 6.9638C18.1857 6.61233 17.6159 6.61233 17.2644 6.9638Z" fill="#E7AC28"/>
</svg>
