<svg width="24" height="24" viewBox="0 0 24 24" fill="none" xmlns="http://www.w3.org/2000/svg">
<path d="M9.27245 4.43149L10.1432 4.65921V4.65921L9.27245 4.43149ZM6.80834 5.85415L7.04648 4.98622H7.04648L6.80834 5.85415ZM4.08049 10.5789L4.71307 9.93871H4.71307L4.08049 10.5789ZM4.08049 13.4242L4.71307 14.0644H4.71307L4.08049 13.4242ZM6.80834 18.149L6.5702 17.2811H6.5702L6.80834 18.149ZM9.27245 19.5716L10.1432 19.3439L9.27245 19.5716ZM14.7281 19.5716L15.5989 19.7994L14.7281 19.5716ZM17.1923 18.149L17.4304 17.2811H17.4304L17.1923 18.149ZM19.9201 13.4242L19.2875 14.0644L19.9201 13.4242ZM19.9201 10.5789L19.2875 9.93871V9.93871L19.9201 10.5789ZM17.1923 5.85415L16.9541 4.98622L17.1923 5.85415ZM14.7281 4.43149L15.5989 4.20376V4.20376L14.7281 4.43149ZM19.6053 6.30563L20.3253 5.76564L19.6053 6.30563ZM17.6921 5.71699L17.454 4.84907L17.6921 5.71699ZM20.2908 10.2126L20.9234 10.8528L20.2908 10.2126ZM20.737 8.26279L19.9097 8.61714L20.737 8.26279ZM20.7359 15.7399L19.9087 15.3853L20.7359 15.7399ZM20.2898 13.7896L19.6573 14.4298L20.2898 13.7896ZM19.6029 17.6975L20.3227 18.2378L19.6029 17.6975ZM13.1294 21.4336L13.0236 20.5399L13.1294 21.4336ZM14.5974 20.0716L13.7267 19.8439L14.5974 20.0716ZM4.39777 17.6975L3.67798 18.2378L4.39777 17.6975ZM3.71083 13.7895L3.07826 13.1493L3.71083 13.7895ZM6.30856 5.71702L6.5467 4.84909L6.30856 5.71702ZM10.8711 21.4336L10.977 20.5398L10.8711 21.4336ZM3.70987 10.2127L3.0773 10.8529L3.70987 10.2127ZM12.0004 3.4C12.3466 3.4 12.6877 3.42042 13.0226 3.46004L13.2341 1.67251C12.8292 1.6246 12.4175 1.6 12.0004 1.6V3.4ZM10.9779 3.46006C11.3129 3.42042 11.654 3.4 12.0004 3.4V1.6C11.5832 1.6 11.1714 1.62461 10.7664 1.67253L10.9779 3.46006ZM8.53335 3.70055L8.40174 4.20376L10.1432 4.65921L10.2748 4.156L8.53335 3.70055ZM8.40174 4.20376C8.24672 4.79649 7.6373 5.14833 7.04648 4.98622L6.5702 6.72207C8.12784 7.14945 9.73447 6.22186 10.1432 4.65921L8.40174 4.20376ZM7.04648 4.98622L6.5467 4.84909L6.07042 6.58494L6.5702 6.72207L7.04648 4.98622ZM4.09094 8.61723C4.36204 7.98428 4.70709 7.39011 5.11542 6.84564L3.6754 5.76567C3.18199 6.42358 2.76455 7.14221 2.43632 7.90855L4.09094 8.61723ZM3.0773 10.8529L3.44792 11.2191L4.71307 9.93871L4.34245 9.57251L3.0773 10.8529ZM3.44792 11.2191C3.88373 11.6497 3.88373 12.3534 3.44792 12.784L4.71307 14.0644C5.86201 12.9292 5.86201 11.074 4.71307 9.93871L3.44792 11.2191ZM3.44792 12.784L3.07826 13.1493L4.34341 14.4297L4.71307 14.0644L3.44792 12.784ZM5.11756 17.1572C4.70881 16.6127 4.36339 16.0183 4.09197 15.3852L2.43757 16.0944C2.76618 16.861 3.18408 17.5798 3.67798 18.2378L5.11756 17.1572ZM6.54862 19.1535L7.04648 19.0169L6.5702 17.2811L6.07234 17.4177L6.54862 19.1535ZM7.04647 19.0169C7.6373 18.8548 8.24672 19.2066 8.40174 19.7994L10.1432 19.3439C9.73447 17.7813 8.12784 16.8537 6.5702 17.2811L7.04647 19.0169ZM8.40174 19.7994L8.53251 20.2994L10.2739 19.8439L10.1432 19.3439L8.40174 19.7994ZM12.0004 20.6C11.6537 20.6 11.3122 20.5795 10.977 20.5398L10.7653 22.3273C11.1706 22.3753 11.5828 22.4 12.0004 22.4V20.6ZM13.0236 20.5399C12.6884 20.5795 12.3469 20.6 12.0004 20.6V22.4C12.4178 22.4 12.83 22.3754 13.2352 22.3274L13.0236 20.5399ZM15.4681 20.2994L15.5989 19.7994L13.8574 19.3439L13.7267 19.8439L15.4681 20.2994ZM15.5989 19.7994C15.7539 19.2066 16.3633 18.8548 16.9541 19.0169L17.4304 17.2811C15.8728 16.8537 14.2661 17.7813 13.8574 19.3439L15.5989 19.7994ZM16.9541 19.0169L17.4521 19.1535L17.9283 17.4177L17.4304 17.2811L16.9541 19.0169ZM19.9087 15.3853C19.6373 16.0184 19.2919 16.6127 18.8831 17.1572L20.3227 18.2378C20.8166 17.5798 21.2345 16.861 21.5631 16.0945L19.9087 15.3853ZM20.9224 13.1494L20.5527 12.784L19.2875 14.0644L19.6573 14.4298L20.9224 13.1494ZM20.5527 12.784C20.1169 12.3534 20.1169 11.6497 20.5527 11.2191L19.2875 9.93871C18.1386 11.074 18.1386 12.9292 19.2875 14.0644L20.5527 12.784ZM20.5527 11.2191L20.9234 10.8528L19.6582 9.57242L19.2875 9.93871L20.5527 11.2191ZM18.8853 6.84561C19.2936 7.39006 19.6386 7.98421 19.9097 8.61714L21.5643 7.90844C21.2361 7.14212 20.8187 6.42352 20.3253 5.76564L18.8853 6.84561ZM17.454 4.84907L16.9541 4.98622L17.4304 6.72207L17.9303 6.58491L17.454 4.84907ZM16.9541 4.98622C16.3633 5.14833 15.7539 4.79649 15.5989 4.20376L13.8574 4.65921C14.2661 6.22186 15.8728 7.14945 17.4304 6.72207L16.9541 4.98622ZM15.5989 4.20376L15.4672 3.70053L13.7258 4.15599L13.8574 4.65921L15.5989 4.20376ZM12.0003 16.4C14.4304 16.4 16.4003 14.43 16.4003 12H14.6003C14.6003 13.4359 13.4363 14.6 12.0003 14.6V16.4ZM7.60033 12C7.60033 14.43 9.57028 16.4 12.0003 16.4V14.6C10.5644 14.6 9.40033 13.4359 9.40033 12H7.60033ZM12.0003 7.59999C9.57028 7.59999 7.60033 9.56994 7.60033 12H9.40033C9.40033 10.564 10.5644 9.39999 12.0003 9.39999V7.59999ZM16.4003 12C16.4003 9.56994 14.4304 7.59999 12.0003 7.59999V9.39999C13.4363 9.39999 14.6003 10.564 14.6003 12H16.4003ZM20.3253 5.76564C19.6269 4.83448 18.451 4.5755 17.454 4.84907L17.9303 6.58491C18.344 6.47139 18.7059 6.60641 18.8853 6.84561L20.3253 5.76564ZM20.9234 10.8528C21.6582 10.1267 22.0229 8.97895 21.5643 7.90844L19.9097 8.61714C20.0269 8.89069 19.9635 9.27081 19.6582 9.57242L20.9234 10.8528ZM21.5631 16.0945C22.0221 15.0238 21.6574 13.8756 20.9224 13.1494L19.6573 14.4298C19.9626 14.7315 20.026 15.1117 19.9087 15.3853L21.5631 16.0945ZM17.4521 19.1535C18.4488 19.427 19.6242 19.1683 20.3227 18.2378L18.8831 17.1572C18.7037 17.3963 18.3419 17.5312 17.9283 17.4177L17.4521 19.1535ZM13.2352 22.3274C14.3929 22.1903 15.2063 21.3002 15.4681 20.2994L13.7267 19.8439C13.618 20.2595 13.3199 20.5048 13.0236 20.5399L13.2352 22.3274ZM3.67798 18.2378C4.37646 19.1683 5.55191 19.427 6.54862 19.1535L6.07234 17.4177C5.65875 17.5311 5.297 17.3963 5.11756 17.1572L3.67798 18.2378ZM3.07826 13.1493C2.34325 13.8755 1.97861 15.0237 2.43757 16.0944L4.09197 15.3852C3.9747 15.1116 4.03807 14.7314 4.34341 14.4297L3.07826 13.1493ZM6.5467 4.84909C5.54964 4.57552 4.37375 4.8345 3.6754 5.76567L5.11542 6.84564C5.29482 6.60644 5.65668 6.47142 6.07042 6.58494L6.5467 4.84909ZM8.53251 20.2994C8.79427 21.3002 9.6077 22.1902 10.7653 22.3273L10.977 20.5398C10.6807 20.5047 10.3826 20.2595 10.2739 19.8439L8.53251 20.2994ZM10.7664 1.67253C9.60869 1.80951 8.79514 2.6996 8.53335 3.70055L10.2748 4.156C10.3835 3.7404 10.6816 3.49512 10.9779 3.46006L10.7664 1.67253ZM2.43632 7.90855C1.97782 8.97906 2.34249 10.1268 3.0773 10.8529L4.34245 9.57251C4.0372 9.27089 3.97378 8.89078 4.09094 8.61723L2.43632 7.90855ZM13.0226 3.46004C13.319 3.4951 13.6171 3.74038 13.7258 4.15599L15.4672 3.70053C15.2054 2.69957 14.3919 1.80948 13.2341 1.67251L13.0226 3.46004Z" fill="#E7AC28"/>
</svg>
